<svg width="70" height="70" viewBox="0 0 70 70" fill="none" xmlns="http://www.w3.org/2000/svg">
<path d="M28.9969 40.4704C25.9513 40.4705 22.9829 39.3914 20.6208 37.3813C17.7068 34.9015 16.0354 31.2853 16.0354 27.4601V23.8879C16.0354 23.475 16.1965 23.0867 16.4888 22.7951C16.7801 22.5046 17.167 22.3446 17.5783 22.3446C17.5796 22.3446 17.581 22.3446 17.5824 22.3446L26.935 22.3651C27.5184 22.3663 27.9904 22.8403 27.9891 23.4239C27.9878 24.0064 27.515 24.478 26.9328 24.478C26.932 24.478 26.9312 24.478 26.9304 24.478L18.1483 24.4587L18.1481 27.4599C18.1481 30.6646 19.5484 33.6943 21.9899 35.772C24.4127 37.8337 27.5978 38.7256 30.7269 38.2179C30.8355 38.2003 30.9447 38.1818 31.055 38.1625C31.6304 38.0629 32.1772 38.4462 32.2779 39.0209C32.3785 39.5956 31.9942 40.1431 31.4195 40.2437C31.3005 40.2645 31.1822 40.2846 31.065 40.3036C30.3761 40.4154 29.6843 40.4704 28.9969 40.4704Z" fill="#FFB125"/>
<path d="M41.0029 40.4704C40.3152 40.4704 39.624 40.4154 38.9347 40.3037C38.8175 40.2847 38.6992 40.2646 38.5801 40.2438C38.0054 40.1432 37.6212 39.5956 37.7218 39.021C37.8224 38.4462 38.3706 38.0627 38.9446 38.1627C39.0548 38.1821 39.1642 38.2005 39.2728 38.218C42.4025 38.7253 45.587 37.8339 48.0098 35.7722C50.4513 33.6946 51.8516 30.6649 51.8516 27.4601V24.4588L43.0694 24.4781C43.0686 24.4781 43.0678 24.4781 43.067 24.4781C42.4847 24.4781 42.0119 24.0067 42.0107 23.424C42.0093 22.8405 42.4813 22.3665 43.0648 22.3652L52.4179 22.3447C52.4192 22.3447 52.4206 22.3447 52.422 22.3447C52.8329 22.3447 53.2197 22.5046 53.5112 22.7952C53.8035 23.087 53.9646 23.475 53.9646 23.888V27.4602C53.9646 31.2854 52.2933 34.9017 49.3791 37.3815C47.0171 39.3912 44.0483 40.4704 41.0029 40.4704Z" fill="#FFB125"/>
<path d="M28.0542 55.7802H41.9461C36.1917 48.483 36.7922 37.9663 36.7922 37.9663H35.0002H33.2082C33.2082 37.9664 33.8087 48.4831 28.0542 55.7802Z" fill="#FED130"/>
<path d="M36.7921 37.9666H35.0001H33.2081C33.2081 37.9666 33.3011 39.5994 33.062 42.0245C32.6061 46.6471 33.7528 51.3103 36.4582 55.0861C36.6261 55.3204 36.8 55.552 36.9801 55.7803H41.9461C36.1916 48.4832 36.7921 37.9666 36.7921 37.9666Z" fill="#F7BC14"/>
<path d="M24.5208 19.3174V28.5337C24.5208 33.9863 27.1123 39.1144 31.5022 42.3486C33.5822 43.881 36.4175 43.881 38.4975 42.3486C42.8874 39.1145 45.4789 33.9863 45.4789 28.5337V19.3174H24.5208Z" fill="#FED130"/>
<path d="M40.4895 19.3174V28.5337C40.4895 33.9864 37.898 39.1144 33.5081 42.3486C33.1897 42.5832 32.8535 42.7815 32.5051 42.9442C34.4326 43.8447 36.7359 43.6465 38.4975 42.3486C42.8874 39.1145 45.4789 33.9864 45.4789 28.5337V19.3174H40.4895Z" fill="#F7BC14"/>
<path d="M46.23 20.7571H23.7704C23.4319 20.7571 23.1575 20.4827 23.1575 20.1442V17.6042C23.1575 17.2657 23.4319 16.9913 23.7704 16.9913H46.23C46.5685 16.9913 46.8429 17.2657 46.8429 17.6042V20.1442C46.8428 20.4827 46.5684 20.7571 46.23 20.7571Z" fill="#FFB125"/>
<path d="M46.3766 17H42V20.7656H46.3766C46.7152 20.7656 46.9894 20.4912 46.9894 20.1527V17.6128C46.9894 17.2744 46.715 17 46.3766 17Z" fill="#FF901D"/>
<path d="M46.917 60.2341H23.1772C22.8331 60.2341 22.5942 59.8913 22.7134 59.5685L24.4764 54.7916C24.5481 54.5973 24.7332 54.4684 24.9402 54.4684H45.154C45.361 54.4684 45.5461 54.5973 45.6178 54.7916L47.3808 59.5685C47.5 59.8913 47.2611 60.2341 46.917 60.2341Z" fill="#FFB125"/>
<path d="M47.3809 59.5685L45.6179 54.7916C45.5462 54.5973 45.3612 54.4684 45.154 54.4684H40.3325L42.4604 60.2341H46.917C47.2612 60.2341 47.5 59.8913 47.3809 59.5685Z" fill="#FF901D"/>
</svg>
