<svg width="22" height="22" viewBox="0 0 22 22" fill="none" xmlns="http://www.w3.org/2000/svg">
<path d="M18.9614 3.41698L17.8234 4.17563L15.9267 3.79631L14.7887 3.41698L13.2713 3.79631L12.1333 3.41698L12.892 1.89962H14.4093L15.8963 1.15613C17.0431 1.72323 18.0806 2.48872 18.9614 3.41698Z" fill="#03AA6F"/>
<path d="M10.2388 1.8994L9.85945 3.03743L8.72142 3.41676L7.58339 5.31345L5.68671 6.45148L3.03136 6.83081V7.96884L3.79002 8.7275V10.2449L2.65208 9.48615L1.51405 8.7275L0.854004 6.74358C1.9901 4.0362 4.16183 1.89597 6.88545 0.799316L7.96277 1.52008L10.2388 1.8994Z" fill="#03AA6F"/>
<path d="M11.0005 12.5211L10.6212 14.4178L9.10382 15.9351V17.0732L7.58646 18.2112V20.1078L6.44847 19.7285L5.68977 17.8318V14.0385L3.79308 13.6591L3.03442 12.1418V11.0037L3.79308 10.2451L4.93111 9.10706L5.68977 10.6244H8.34512L9.48315 12.5211H11.0005Z" fill="#03AA6F"/>
<path d="M20.5956 5.62833C22.6664 9.3227 22.4305 13.8782 19.9887 17.3384L18.9645 16.3142V14.7969L18.2058 13.2795L17.4471 11.7622V10.2448L16.3091 9.48616L14.7918 9.86548L12.1364 8.72746L11.7571 6.07211L12.8951 4.93408H15.1711L15.9298 6.07211L18.2058 6.45144L20.4818 5.69278L20.5956 5.62833Z" fill="#03AA6F"/>
<path d="M13.2753 3.79636L14.7926 3.41703L15.9307 3.79636L17.8273 4.17569L18.9654 3.41703C19.6007 4.08202 20.1489 4.82512 20.5965 5.62855L20.4827 5.69305L18.2067 6.4517L15.9307 6.07238L15.172 4.93435H12.896L11.758 6.07238L12.1373 8.72772L14.7927 9.86575L16.31 9.48642L17.4481 10.2451V11.7624L18.2067 13.2798L18.9654 14.7972V16.3145L19.9896 17.3387C16.4864 22.3027 9.62227 23.4867 4.65864 19.9835C0.44305 17.0079 -1.13842 11.5026 0.855766 6.74381L1.51581 8.72772L2.65384 9.48638L3.79187 10.245L3.03317 11.0037V12.1418L3.79183 13.6591L5.68851 14.0385V17.8318L6.44717 19.7285L7.5852 20.1078V18.2112L9.10256 17.0731V15.9351L10.6199 14.4177L10.9992 12.5211H9.48189L8.34386 10.6244H5.68851L4.92986 9.10701L3.79183 10.245V8.72768L3.03317 7.96906V6.83103L5.68851 6.4517L7.5852 5.31368L8.72323 3.41699L9.86126 3.03766L10.2406 1.89963L7.96457 1.5203L6.88726 0.799541C9.80437 -0.37527 13.0849 -0.245547 15.9003 1.15614L14.4133 1.89963H12.8959L12.1373 3.41699L13.2753 3.79636Z" fill="#86DAF1"/>
</svg>
