<svg width="70" height="70" viewBox="0 0 70 70" fill="none" xmlns="http://www.w3.org/2000/svg">
<g clip-path="url(#clip0)">
<path d="M5.0286 19.4714C6.69 17.6588 8.43098 16.0277 10.3479 14.5134C10.5734 14.3354 10.8979 14.5486 10.8225 14.8257C9.74799 18.7748 7.87071 22.6776 4.97678 25.5789C4.84676 23.5478 4.84485 21.4997 5.0286 19.4714Z" fill="#FF901D"/>
<path d="M4.97711 25.5804C3.30627 23.5641 1.87045 21.4794 0.576817 19.2287C0.428887 18.9714 0.0354104 19.0631 0.0203713 19.3597C-0.213008 23.97 1.54848 29.3643 5.84008 31.5401C5.41242 29.5795 5.10426 27.5844 4.97711 25.5804Z" fill="#FF901D"/>
<path d="M5.83984 31.5386C6.89135 29.375 8.06836 27.3621 9.44799 25.411C9.61164 25.1795 9.97873 25.2856 9.99063 25.5689C10.1587 29.5514 9.47533 33.7612 7.56715 37.2571C6.85977 35.3964 6.26313 33.4851 5.83984 31.5386Z" fill="#FF901D"/>
<path d="M7.56751 37.2585C5.39792 35.8642 3.41604 34.3396 1.51497 32.6271C1.29567 32.4295 0.951687 32.6358 1.02593 32.9214C2.17122 37.325 5.44645 41.844 10.1094 42.6421C9.14005 40.9113 8.27175 39.1146 7.56751 37.2585Z" fill="#FF901D"/>
<path d="M10.1086 42.6408C10.4887 40.2805 11.0323 38.0289 11.7891 35.7778C11.879 35.5101 12.2592 35.5049 12.3536 35.7712C13.677 39.5075 14.2131 43.7227 13.4146 47.5964C12.2008 46.0255 11.078 44.3747 10.1086 42.6408Z" fill="#FF901D"/>
<path d="M13.4154 47.5977C10.9423 46.897 8.60581 46.0208 6.29185 44.9467C6.02456 44.8226 5.75659 45.1201 5.91067 45.3712C8.28985 49.2512 12.7442 52.6104 17.4357 52.0315C15.9955 50.6517 14.6346 49.1778 13.4154 47.5977Z" fill="#FF901D"/>
<path d="M17.4345 52.0305C17.097 49.6524 16.9536 47.333 17.0199 44.9487C17.0277 44.6661 17.3903 44.5503 17.5582 44.7778C19.9278 47.9905 21.6956 51.893 22.1186 55.8495C20.4709 54.6914 18.8887 53.4257 17.4345 52.0305Z" fill="#FF901D"/>
<path d="M64.9713 19.4714C63.3099 17.6588 61.5689 16.0277 59.652 14.5134C59.4265 14.3354 59.1019 14.5486 59.1774 14.8257C60.2519 18.7748 62.1292 22.6776 65.0231 25.5789C65.1531 23.5478 65.155 21.4997 64.9713 19.4714Z" fill="#FF901D"/>
<path d="M65.0226 25.5804C66.6935 23.5641 68.1293 21.4794 69.423 19.2287C69.5709 18.9714 69.9644 19.0631 69.9794 19.3597C70.2128 23.97 68.4513 29.3643 64.1597 31.5401C64.5873 29.5795 64.8955 27.5844 65.0226 25.5804Z" fill="#FF901D"/>
<path d="M64.1602 31.5386C63.1087 29.375 61.9316 27.3621 60.552 25.411C60.3884 25.1795 60.0213 25.2856 60.0094 25.5689C59.8414 29.5514 60.5247 33.7612 62.4329 37.2571C63.1402 35.3964 63.7369 33.4851 64.1602 31.5386Z" fill="#FF901D"/>
<path d="M62.4323 37.2585C64.6018 35.8642 66.5837 34.3396 68.4848 32.6271C68.7041 32.4295 69.0481 32.6358 68.9738 32.9214C67.8285 37.325 64.5533 41.844 59.8904 42.6421C60.8597 40.9113 61.728 39.1146 62.4323 37.2585Z" fill="#FF901D"/>
<path d="M59.8914 42.6408C59.5113 40.2805 58.9677 38.0289 58.211 35.7778C58.121 35.5101 57.7408 35.5049 57.6465 35.7712C56.323 39.5075 55.787 43.7227 56.5854 47.5964C57.7992 46.0255 58.9221 44.3747 59.8914 42.6408Z" fill="#FF901D"/>
<path d="M56.5844 47.5977C59.0575 46.897 61.3941 46.0208 63.708 44.9467C63.9753 44.8226 64.2433 45.1201 64.0892 45.3712C61.71 49.2512 57.2557 52.6104 52.5642 52.0315C54.0044 50.6517 55.3653 49.1778 56.5844 47.5977Z" fill="#FF901D"/>
<path d="M52.5657 52.0305C52.9031 49.6524 53.0465 47.333 52.9802 44.9487C52.9724 44.6661 52.6099 44.5503 52.442 44.7778C50.0724 47.9905 48.3046 51.893 47.8816 55.8495C49.5293 54.6914 51.1114 53.4257 52.5657 52.0305Z" fill="#FF901D"/>
<path d="M27.9047 58.0195C26.0113 57.0858 24.2805 56.07 22.7604 55.0006C22.76 55.0003 22.7597 55.0002 22.7593 54.9999C22.759 54.9997 22.7589 54.9995 22.7586 54.9993C21.062 53.8071 19.5324 52.5604 18.2117 51.2934C18.2115 51.2932 18.2112 51.2928 18.2109 51.2925C16.7285 49.8725 15.4149 48.4241 14.3064 46.9873C14.3061 46.9869 14.3057 46.9865 14.3054 46.9861C14.3053 46.986 14.3053 46.9858 14.3051 46.9857C13.0547 45.3672 11.9742 43.7481 11.0937 42.1728C11.0933 42.172 11.0928 42.1713 11.0924 42.1705C10.0938 40.3867 9.26349 38.6286 8.62474 36.9448C8.62447 36.9441 8.6242 36.9436 8.62392 36.943V36.9429C7.89439 35.0232 7.32988 33.1548 6.94584 31.3895C6.94584 31.3892 6.9457 31.3891 6.9457 31.389C6.50478 29.3676 6.22273 27.4211 6.10748 25.604C6.10748 25.603 6.1072 25.6022 6.1072 25.6014C5.97322 23.5086 5.9899 21.5139 6.15683 19.6727C6.15888 19.6504 6.15888 19.6283 6.15943 19.6061C6.37982 16.759 6.90687 13.905 7.72855 11.1218C7.89371 10.5622 7.57392 9.9747 7.01433 9.80954C6.45502 9.64425 5.86726 9.9639 5.70211 10.5238C4.8297 13.4789 4.27203 16.5112 4.04466 19.5364C4.04316 19.557 4.04357 19.5773 4.04316 19.5976C3.87609 21.5147 3.86037 23.5789 3.99859 25.7367C3.99859 25.7371 3.99859 25.7374 3.99859 25.7378C4.12054 27.6594 4.41709 29.7102 4.88015 31.8336C4.88056 31.8352 4.8807 31.837 4.88097 31.8386C5.28716 33.7062 5.88189 35.6762 6.64875 37.6935C6.64888 37.6937 6.64888 37.694 6.64902 37.6943C7.32482 39.4755 8.19955 41.329 9.249 43.2032C9.24914 43.2035 9.24927 43.2038 9.24941 43.2041C9.24982 43.2047 9.25009 43.2053 9.2505 43.2058C9.2505 43.2058 9.2505 43.2058 9.25064 43.206C10.1818 44.8712 11.3197 46.5775 12.6331 48.2774C12.6336 48.2781 12.6342 48.2785 12.6346 48.2792C13.8064 49.7977 15.1898 51.3241 16.7467 52.8155C16.7471 52.8159 16.7473 52.8163 16.7478 52.8168C18.1457 54.1581 19.7594 55.474 21.5441 56.7281C21.5444 56.7283 21.5445 56.7284 21.5448 56.7285C23.1537 57.8607 24.9792 58.9326 26.9702 59.9145C27.1206 59.9886 27.2799 60.0237 27.4367 60.0237C27.8262 60.0237 28.2011 59.8073 28.385 59.4344C28.643 58.911 28.4279 58.2776 27.9047 58.0195Z" fill="#F7BC14"/>
<path d="M65.957 19.5977C65.9566 19.5773 65.957 19.5572 65.9555 19.5367C65.7282 16.511 65.1705 13.4785 64.2981 10.5239C64.1329 9.96447 63.5456 9.64536 62.9857 9.80984C62.4261 9.97499 62.1065 10.5626 62.2717 11.1222C63.0932 13.9047 63.6202 16.7586 63.8408 19.606C63.8415 19.6283 63.8415 19.6506 63.8435 19.673C64.0104 21.5135 64.0271 23.5084 63.8931 25.6019C63.8931 25.6024 63.8931 25.6028 63.8931 25.603C63.8931 25.6034 63.893 25.6037 63.893 25.6041C63.7777 27.4204 63.4957 29.3668 63.0546 31.3891C63.0546 31.3892 63.0545 31.3895 63.0545 31.3897C62.6707 33.155 62.1061 35.0234 61.3764 36.9429C61.3763 36.9432 61.3763 36.9433 61.3761 36.9436C61.376 36.9441 61.3757 36.9445 61.3755 36.945C60.7368 38.6286 59.9063 40.3873 58.9069 42.1724C58.9067 42.1725 58.9066 42.1728 58.9065 42.1729C58.0261 43.7478 56.9456 45.367 55.6949 46.9858C55.6947 46.9863 55.6944 46.9867 55.6941 46.9871C55.694 46.9872 55.694 46.9872 55.6938 46.9873C54.5857 48.4236 53.2719 49.872 51.7893 51.2925C51.789 51.2928 51.7887 51.2932 51.7885 51.2934C50.4683 52.56 48.9384 53.8069 47.2415 54.9993C47.2411 54.9996 47.2406 55 47.2401 55.0004C47.24 55.0004 47.2398 55.0006 47.2397 55.0006C45.7195 56.0703 43.9888 57.0859 42.0954 58.0195C41.572 58.2774 41.357 58.9109 41.6151 59.4341C41.799 59.8073 42.1737 60.0236 42.5634 60.0236C42.7202 60.0236 42.8795 59.9885 43.0297 59.9144C45.0205 58.9327 46.8457 57.861 48.4546 56.729C48.4551 56.7286 48.4557 56.7284 48.4562 56.728C50.2412 55.4735 51.8549 54.1576 53.2524 52.8166C53.2529 52.8162 53.2531 52.8158 53.2535 52.8154C54.811 51.323 56.1949 49.7964 57.3664 48.278C57.3666 48.278 57.3666 48.2778 57.3667 48.2777C57.3669 48.2776 57.367 48.2774 57.3671 48.2773C58.6811 46.5762 59.8197 44.8693 60.7508 43.2039C60.7515 43.2028 60.7519 43.2017 60.7524 43.2006C61.8016 41.3265 62.6759 39.4738 63.3509 37.6943C63.3509 37.6942 63.351 37.6942 63.351 37.6939C63.351 37.6938 63.3512 37.6938 63.3512 37.6935C64.1176 35.6773 64.7119 33.7085 65.1181 31.8418C65.1183 31.8414 65.1184 31.8411 65.1185 31.8407C65.5824 29.7138 65.8795 27.6605 66.0015 25.7377C66.0016 25.7362 66.0015 25.7348 66.0015 25.7335C66.1397 23.576 66.124 21.513 65.957 19.5977Z" fill="#F7BC14"/>
<path d="M28.9969 40.4704C25.9513 40.4705 22.9829 39.3914 20.6208 37.3813C17.7068 34.9015 16.0354 31.2853 16.0354 27.4601V23.8879C16.0354 23.475 16.1965 23.0867 16.4888 22.7951C16.7801 22.5046 17.167 22.3446 17.5783 22.3446C17.5796 22.3446 17.581 22.3446 17.5824 22.3446L26.935 22.3651C27.5184 22.3663 27.9904 22.8403 27.9891 23.4239C27.9878 24.0064 27.515 24.478 26.9328 24.478C26.932 24.478 26.9312 24.478 26.9304 24.478L18.1483 24.4587L18.1481 27.4599C18.1481 30.6646 19.5484 33.6943 21.9899 35.772C24.4127 37.8337 27.5978 38.7256 30.7269 38.2179C30.8355 38.2003 30.9447 38.1818 31.055 38.1625C31.6304 38.0629 32.1772 38.4462 32.2779 39.0209C32.3785 39.5956 31.9942 40.1431 31.4195 40.2437C31.3005 40.2645 31.1822 40.2846 31.065 40.3036C30.3761 40.4154 29.6843 40.4704 28.9969 40.4704Z" fill="#FFB125"/>
<path d="M41.0029 40.4704C40.3152 40.4704 39.624 40.4154 38.9347 40.3037C38.8175 40.2847 38.6992 40.2646 38.5801 40.2438C38.0054 40.1432 37.6212 39.5956 37.7218 39.021C37.8224 38.4462 38.3706 38.0627 38.9446 38.1627C39.0548 38.1821 39.1642 38.2005 39.2728 38.218C42.4025 38.7253 45.587 37.8339 48.0098 35.7722C50.4513 33.6946 51.8516 30.6649 51.8516 27.4601V24.4588L43.0694 24.4781C43.0686 24.4781 43.0678 24.4781 43.067 24.4781C42.4847 24.4781 42.0119 24.0067 42.0107 23.424C42.0093 22.8405 42.4813 22.3665 43.0648 22.3652L52.4179 22.3447C52.4192 22.3447 52.4206 22.3447 52.422 22.3447C52.8329 22.3447 53.2197 22.5046 53.5112 22.7952C53.8035 23.087 53.9646 23.475 53.9646 23.888V27.4602C53.9646 31.2854 52.2933 34.9017 49.3791 37.3815C47.0171 39.3912 44.0483 40.4704 41.0029 40.4704Z" fill="#FFB125"/>
<path d="M28.0542 55.7802H41.9461C36.1917 48.483 36.7922 37.9663 36.7922 37.9663H35.0002H33.2082C33.2082 37.9664 33.8087 48.4831 28.0542 55.7802Z" fill="#FED130"/>
<path d="M36.7921 37.9666H35.0001H33.2081C33.2081 37.9666 33.3011 39.5994 33.062 42.0245C32.6061 46.6471 33.7528 51.3103 36.4582 55.0861C36.6261 55.3204 36.8 55.552 36.9801 55.7803H41.9461C36.1916 48.4832 36.7921 37.9666 36.7921 37.9666Z" fill="#F7BC14"/>
<path d="M24.5208 19.3174V28.5337C24.5208 33.9863 27.1123 39.1144 31.5022 42.3486C33.5822 43.881 36.4175 43.881 38.4975 42.3486C42.8874 39.1145 45.4789 33.9863 45.4789 28.5337V19.3174H24.5208Z" fill="#FED130"/>
<path d="M40.4895 19.3174V28.5337C40.4895 33.9864 37.898 39.1144 33.5081 42.3486C33.1897 42.5832 32.8535 42.7815 32.5051 42.9442C34.4326 43.8447 36.7359 43.6465 38.4975 42.3486C42.8874 39.1145 45.4789 33.9864 45.4789 28.5337V19.3174H40.4895Z" fill="#F7BC14"/>
<path d="M46.23 20.7571H23.7704C23.4319 20.7571 23.1575 20.4827 23.1575 20.1442V17.6042C23.1575 17.2657 23.4319 16.9913 23.7704 16.9913H46.23C46.5685 16.9913 46.8429 17.2657 46.8429 17.6042V20.1442C46.8428 20.4827 46.5684 20.7571 46.23 20.7571Z" fill="#FFB125"/>
<path d="M46.2299 16.9913H41.8533V20.757H46.2299C46.5684 20.757 46.8427 20.4826 46.8427 20.1441V17.6041C46.8427 17.2657 46.5683 16.9913 46.2299 16.9913Z" fill="#FF901D"/>
<path d="M46.917 60.2341H23.1772C22.8331 60.2341 22.5942 59.8913 22.7134 59.5685L24.4764 54.7916C24.5481 54.5973 24.7332 54.4684 24.9402 54.4684H45.154C45.361 54.4684 45.5461 54.5973 45.6178 54.7916L47.3808 59.5685C47.5 59.8913 47.2611 60.2341 46.917 60.2341Z" fill="#FFB125"/>
<path d="M47.3809 59.5685L45.6179 54.7916C45.5462 54.5973 45.3612 54.4684 45.154 54.4684H40.3325L42.4604 60.2341H46.917C47.2612 60.2341 47.5 59.8913 47.3809 59.5685Z" fill="#FF901D"/>
</g>
<defs>
<clipPath id="clip0">
<rect width="70" height="70" fill="white"/>
</clipPath>
</defs>
</svg>
