<svg width="39" height="38" viewBox="0 0 39 38" fill="none" xmlns="http://www.w3.org/2000/svg">
<g clip-path="url(#clip0)">
<path fill-rule="evenodd" clip-rule="evenodd" d="M28.8309 6.76111L28.8309 6.7611C28.9438 6.33992 29.1902 5.84166 29.3801 5.55398C30.7454 2.98558 33.8781 2.24501 36.313 3.68742C38.7479 5.12984 39.622 8.18543 38.1796 10.6203C37.9332 11.1186 37.6098 11.4833 37.2863 11.8481L37.2863 11.8481C36.9629 12.2129 36.5623 12.4441 36.1618 12.6753C32.6135 14.546 29.6047 17.3511 27.459 20.7261C26.2272 23.2175 25.4165 25.8216 25.1041 28.6722L24.7187 28.0046C24.4104 27.4706 23.758 26.9572 23.1826 26.5773C22.8564 26.3206 22.4968 26.0832 22.1372 25.8458C21.7777 25.6084 21.4181 25.3709 21.0918 25.1143C23.0738 23.6139 24.8246 21.7131 26.0771 19.5659C27.9351 16.0009 28.8737 12.0768 28.703 8.08108C28.6052 7.60347 28.7181 7.18229 28.8309 6.76111ZM27.3829 7.95317L27.4902 6.2891C27.6031 5.86792 27.7159 5.44673 28.0394 5.08198C25.482 6.20243 22.6935 6.92235 19.8636 6.95408C17.7219 6.94449 15.4825 6.4573 13.433 5.68243C11.8047 5.02041 10.1764 4.3584 8.60451 3.4858C8.47102 3.41979 8.35264 3.35783 8.24276 3.30032L8.24273 3.30031C7.9425 3.14318 7.70572 3.01926 7.3974 2.93664C6.97621 2.82378 6.55503 2.71093 6.07742 2.80866C3.24754 2.84038 0.829246 5.12665 0.860968 7.95653C0.892691 10.7864 3.10187 13.0712 5.93176 13.0395C6.83055 13.0546 7.70869 12.7256 8.50975 12.2631C11.9039 10.1255 15.9147 9.05594 19.9104 8.88517C22.3398 9.08469 24.7127 9.49481 27.0499 10.4596C27.1421 9.69433 27.2343 8.92905 27.3829 7.95317ZM24.7614 33.3204C25.1 32.0568 24.9403 30.5469 24.3236 29.4788L23.8611 28.6778C23.4193 28.2208 23.0545 27.8974 22.4792 27.5175C18.9143 25.6594 15.9191 22.9384 13.7815 19.5442C12.5482 17.408 11.8489 14.9636 11.4938 12.4984C11.1752 12.6824 10.8391 12.8359 10.4876 12.9964L10.4876 12.9964C10.1026 13.1722 9.6993 13.3565 9.28053 13.5982C8.47947 14.0607 7.39074 14.3333 6.56903 14.4517C8.9475 16.1047 10.7919 18.066 12.2565 20.6027C14.1271 24.151 14.9861 28.1054 14.9462 32.0447C14.9105 32.5994 15.0853 33.2105 15.2601 33.8216L15.7226 34.6227C17.1101 37.0258 20.4024 37.7952 22.7285 36.2742C23.586 35.6011 24.4228 34.5839 24.7614 33.3204Z" fill="#303030"/>
</g>
<defs>
<clipPath id="clip0">
<rect x="39" width="38" height="39" transform="rotate(90 39 0)" fill="white"/>
</clipPath>
</defs>
</svg>
