<svg width="70" height="70" viewBox="0 0 70 70" fill="none" xmlns="http://www.w3.org/2000/svg">
<path d="M28.1995 21.2069L24.5237 15H31.1926L34.8685 21.2069H28.1995Z" fill="#FB7B76"/>
<path d="M34.8687 21.2069L38.5445 15H45.2135L41.5376 21.2069H34.8687Z" fill="#FF5364"/>
<path d="M42.0271 21.5586C41.9387 21.2075 41.7157 20.9053 41.4064 20.7172C41.1898 20.587 40.942 20.5179 40.6892 20.5172H29.0478C28.8171 20.5189 28.5901 20.5756 28.3858 20.6827C28.047 20.8663 27.8015 21.1844 27.7099 21.5586L26.7168 25.531H43.0202L42.0271 21.5586Z" fill="#547580"/>
<path d="M34.8684 55C43.6288 55 50.7305 47.8983 50.7305 39.1379C50.7305 30.3776 43.6288 23.2759 34.8684 23.2759C26.108 23.2759 19.0063 30.3776 19.0063 39.1379C19.0063 47.8983 26.108 55 34.8684 55Z" fill="#F0C419"/>
<path d="M49.2754 32.5104C43.2596 30.3115 36.5117 31.9471 32.1705 36.6564C27.8292 41.3657 26.747 48.2241 29.4271 54.0414C22.6738 51.5778 18.4214 44.8808 19.064 37.721C19.7065 30.5612 25.0834 24.7285 32.1674 23.5067C39.2514 22.2849 46.2715 25.9795 49.2754 32.5104V32.5104Z" fill="#F3D55B"/>
<path d="M38.9997 52.2418C38.9354 52.2417 38.8715 52.2326 38.8098 52.2148C37.8215 51.9325 36.8637 51.5527 35.9504 51.081C35.7415 50.9729 35.6021 50.7658 35.5805 50.5316C35.559 50.2973 35.6584 50.0682 35.8441 49.9239C36.4741 49.4409 37.0255 48.8631 37.4786 48.2112C37.6958 47.9022 38.1212 47.8254 38.4328 48.039C38.7443 48.2526 38.8261 48.6771 38.6161 48.9911C38.2929 49.4607 37.9243 49.8973 37.5156 50.2946C38.0604 50.5274 38.6192 50.7258 39.1889 50.8887C39.52 50.9828 39.731 51.3066 39.6833 51.6476C39.6356 51.9885 39.3439 52.242 38.9996 52.2417L38.9997 52.2418Z" fill="#F29C1F"/>
<path d="M42.6982 50.227C41.918 50.2273 41.1394 50.1565 40.372 50.0152C40.161 49.9762 39.9802 49.8411 39.8828 49.6498C39.7855 49.4585 39.7828 49.2329 39.8755 49.0393C40.193 48.379 40.4143 47.6766 40.5328 46.9535C40.5936 46.5774 40.9478 46.3219 41.3238 46.3827C41.6999 46.4436 41.9554 46.7977 41.8946 47.1738C41.8055 47.722 41.6654 48.2608 41.4764 48.7831C42.0286 48.8416 42.5843 48.8604 43.1392 48.8393C43.5199 48.8248 43.8403 49.1216 43.8548 49.5023C43.8693 49.883 43.5724 50.2034 43.1917 50.2179C43.0273 50.224 42.8628 50.227 42.6982 50.227V50.227Z" fill="#F29C1F"/>
<path d="M43.5995 47.6897C43.4117 47.6897 43.2321 47.6131 43.102 47.4776C42.972 47.3421 42.9028 47.1594 42.9105 46.9717C42.9414 46.2391 42.881 45.5054 42.7307 44.7876C42.6798 44.5465 42.7614 44.2966 42.9448 44.132C43.1281 43.9673 43.3853 43.913 43.6196 43.9895C43.8538 44.066 44.0295 44.2616 44.0804 44.5027C44.1958 45.0521 44.2654 45.61 44.2885 46.1709C44.8024 46.0535 45.3066 45.8976 45.7971 45.7046C46.0272 45.6108 46.2899 45.6481 46.4848 45.8021C46.6798 45.9561 46.7768 46.2031 46.7389 46.4486C46.7009 46.6941 46.5339 46.9002 46.3015 46.9882C45.4632 47.3193 44.5894 47.5524 43.6976 47.6828C43.6651 47.6874 43.6323 47.6897 43.5995 47.6897V47.6897Z" fill="#F29C1F"/>
<path d="M45.5734 44.5192C45.2714 44.519 45.0046 44.3226 44.9147 44.0343C44.6975 43.3299 44.4002 42.6528 44.0287 42.0162C43.839 41.688 43.9498 41.2683 44.2766 41.0764C44.6034 40.8845 45.0239 40.9923 45.2181 41.3177C45.5002 41.7995 45.7446 42.3025 45.9491 42.822C46.3895 42.5463 46.8092 42.2388 47.2048 41.902C47.3926 41.7425 47.6513 41.6953 47.8833 41.7781C48.1154 41.861 48.2856 42.0614 48.3298 42.3038C48.3741 42.5462 48.2856 42.7938 48.0978 42.9533C47.4205 43.5313 46.6798 44.0307 45.8901 44.4421C45.7922 44.4927 45.6836 44.5192 45.5734 44.5192Z" fill="#F29C1F"/>
<path d="M46.4195 40.8851C46.4017 40.8851 46.3835 40.8844 46.3656 40.8831C46.1612 40.867 45.9745 40.7609 45.8561 40.5934C45.4377 39.9968 44.9522 39.4501 44.4091 38.9642C44.1296 38.7101 44.1065 38.2784 44.3574 37.9959C44.6083 37.7134 45.0397 37.6854 45.3251 37.933C45.7342 38.2977 46.1147 38.6933 46.463 39.1164C46.8001 38.7098 47.1083 38.2801 47.3853 37.8304C47.5854 37.5062 48.0105 37.4056 48.3346 37.6057C48.6588 37.8059 48.7594 38.2309 48.5593 38.5551C48.0895 39.3199 47.5378 40.0312 46.9139 40.6766C46.784 40.81 46.6057 40.8852 46.4195 40.8851Z" fill="#F29C1F"/>
<path d="M46.1372 37.1582C45.9886 37.1582 45.8439 37.1101 45.7248 37.0211C45.15 36.5896 44.5258 36.228 43.8656 35.9439C43.6389 35.8473 43.481 35.6371 43.4513 35.3925C43.4216 35.1479 43.5247 34.906 43.7217 34.758C43.9187 34.61 44.1797 34.5783 44.4064 34.6749C44.9059 34.8886 45.3876 35.1419 45.8467 35.4323C46.0478 34.9334 46.2129 34.4206 46.3407 33.898C46.3976 33.6568 46.5796 33.4646 46.8174 33.3947C47.0552 33.3248 47.3122 33.3879 47.4906 33.5599C47.6691 33.732 47.7414 33.9865 47.6802 34.2267C47.4659 35.1071 47.1558 35.9614 46.7555 36.7743C46.6646 36.9577 46.497 37.0914 46.2979 37.1393C46.2453 37.1517 46.1914 37.158 46.1372 37.1582V37.1582Z" fill="#F29C1F"/>
<path d="M44.7274 33.7093C44.6558 33.7094 44.5845 33.6982 44.5163 33.6763C43.8244 33.4521 43.1081 33.312 42.3827 33.2591C42.0027 33.2323 41.7164 32.9026 41.7432 32.5226C41.77 32.1427 42.0997 31.8564 42.4796 31.8831C43.0323 31.9226 43.5809 32.0068 44.12 32.135C44.1495 31.5999 44.1367 31.0632 44.0816 30.5301C44.0521 30.2829 44.1582 30.0389 44.3591 29.8919C44.5601 29.7448 44.8247 29.7175 45.0515 29.8205C45.2782 29.9234 45.4318 30.1406 45.4534 30.3887C45.5478 31.2953 45.5335 32.21 45.4107 33.1133C45.3639 33.4548 45.0721 33.7093 44.7274 33.7093Z" fill="#F29C1F"/>
<path d="M30.7378 52.2418C30.3935 52.2421 30.1017 51.9886 30.0541 51.6477C30.0064 51.3068 30.2174 50.9829 30.5485 50.8888C31.1181 50.7259 31.677 50.5275 32.2218 50.2947C31.8131 49.8974 31.4445 49.4608 31.1213 48.9913C30.9113 48.6772 30.993 48.2527 31.3046 48.0391C31.6161 47.8255 32.0416 47.9023 32.2588 48.2113C32.7119 48.8632 33.2632 49.441 33.8933 49.924C34.079 50.0684 34.1784 50.2974 34.1568 50.5317C34.1353 50.7659 33.9959 50.973 33.7869 51.0811C32.8737 51.5528 31.9159 51.9326 30.9276 52.2149C30.8659 52.2327 30.802 52.2417 30.7378 52.2418V52.2418Z" fill="#F29C1F"/>
<path d="M27.0388 50.227C26.8744 50.227 26.7099 50.224 26.5454 50.2179C26.1647 50.2034 25.8678 49.883 25.8823 49.5023C25.8969 49.1217 26.2172 48.8248 26.5979 48.8393C27.1528 48.8607 27.7086 48.8419 28.2608 48.7831C28.0717 48.2608 27.9317 47.7221 27.8426 47.1738C27.8032 46.9305 27.8966 46.6848 28.0876 46.5291C28.2786 46.3733 28.5382 46.3314 28.7685 46.4189C28.9989 46.5065 29.165 46.7103 29.2043 46.9535C29.3228 47.6766 29.5441 48.379 29.8617 49.0393C29.9543 49.2329 29.9516 49.4586 29.8543 49.6498C29.757 49.8411 29.5761 49.9762 29.3651 50.0152C28.5977 50.1565 27.819 50.2274 27.0388 50.227V50.227Z" fill="#F29C1F"/>
<path d="M26.1374 47.6897C26.1045 47.6898 26.0717 47.6875 26.0391 47.6828C25.1474 47.5525 24.2737 47.3195 23.4354 46.9885C23.2031 46.9005 23.036 46.6944 22.9981 46.4488C22.9602 46.2033 23.0572 45.9564 23.2521 45.8024C23.4471 45.6484 23.7098 45.6111 23.9398 45.7048C24.4303 45.8978 24.9346 46.0537 25.4485 46.1712C25.4715 45.6103 25.5411 45.0523 25.6566 44.503C25.7075 44.2619 25.8831 44.0662 26.1174 43.9898C26.3516 43.9133 26.6089 43.9676 26.7922 44.1322C26.9755 44.2968 27.0571 44.5468 27.0062 44.7878C26.8559 45.5056 26.7955 46.2393 26.8265 46.972C26.8341 47.1596 26.7649 47.3422 26.6349 47.4777C26.5048 47.6131 26.3252 47.6897 26.1374 47.6897V47.6897Z" fill="#F29C1F"/>
<path d="M24.1635 44.5192C24.0532 44.5192 23.9446 44.4928 23.8467 44.4421C23.057 44.0307 22.3163 43.5313 21.639 42.9533C21.4512 42.7938 21.3627 42.5462 21.407 42.3038C21.4512 42.0614 21.6214 41.861 21.8535 41.7782C22.0856 41.6953 22.3442 41.7425 22.532 41.902C22.9276 42.2388 23.3473 42.5463 23.7877 42.822C23.9922 42.3025 24.2366 41.7995 24.5187 41.3177C24.7129 40.9923 25.1334 40.8845 25.4602 41.0764C25.7871 41.2683 25.8978 41.688 25.7081 42.0162C25.3366 42.6529 25.0394 43.3301 24.8222 44.0346C24.7323 44.3229 24.4655 44.5193 24.1635 44.5195V44.5192Z" fill="#F29C1F"/>
<path d="M23.3178 40.885C23.1316 40.885 22.9533 40.8097 22.8235 40.6762C22.1996 40.0309 21.6479 39.3195 21.1781 38.5547C20.978 38.2305 21.0786 37.8055 21.4027 37.6054C21.7269 37.4053 22.1519 37.5058 22.3521 37.83C22.629 38.2797 22.9372 38.7095 23.2744 39.1161C23.6227 38.6929 24.0031 38.2973 24.4123 37.9327C24.6977 37.685 25.1291 37.7131 25.38 37.9955C25.6309 38.278 25.6078 38.7097 25.3283 38.9639C24.7852 39.4498 24.2996 39.9964 23.8812 40.5931C23.7629 40.7606 23.5762 40.8667 23.3717 40.8827C23.3538 40.8843 23.3356 40.885 23.3178 40.885V40.885Z" fill="#F29C1F"/>
<path d="M23.5998 37.1582C23.5457 37.1581 23.4917 37.1518 23.4391 37.1394C23.24 37.0915 23.0724 36.9578 22.9815 36.7744C22.5812 35.9615 22.2711 35.1072 22.0568 34.2269C21.9956 33.9867 22.0679 33.7321 22.2464 33.56C22.4248 33.388 22.6818 33.3249 22.9196 33.3948C23.1574 33.4648 23.3394 33.6569 23.3963 33.8982C23.5241 34.4207 23.6892 34.9335 23.8903 35.4324C24.3495 35.142 24.8312 34.8887 25.3308 34.6751C25.5575 34.5785 25.8185 34.6101 26.0155 34.7581C26.2125 34.9061 26.3156 35.148 26.2859 35.3926C26.2562 35.6372 26.0983 35.8474 25.8716 35.944C25.2114 36.2281 24.5873 36.5897 24.0124 37.0213C23.8933 37.1103 23.7485 37.1583 23.5998 37.1582V37.1582Z" fill="#F29C1F"/>
<path d="M25.0099 33.7093C24.6652 33.7093 24.3735 33.4548 24.3266 33.1133C24.2038 32.21 24.1895 31.2953 24.2839 30.3887C24.3055 30.1406 24.4591 29.9234 24.6858 29.8205C24.9126 29.7175 25.1772 29.7448 25.3782 29.8919C25.5791 30.0389 25.6852 30.2829 25.6557 30.5301C25.6006 31.0632 25.5878 31.5999 25.6173 32.135C26.1564 32.0068 26.705 31.9226 27.2577 31.8831C27.6376 31.8564 27.9674 32.1427 27.9941 32.5226C28.0209 32.9026 27.7346 33.2323 27.3546 33.2591C26.6293 33.312 25.9129 33.4521 25.221 33.6763C25.1528 33.6982 25.0815 33.7094 25.0099 33.7093V33.7093Z" fill="#F29C1F"/>
</svg>
